<svg width="82" height="76" viewBox="0 0 82 76" fill="none" xmlns="http://www.w3.org/2000/svg">
<path d="M8.12784 9.61905H73.872C75.9734 9.61905 77.8827 10.4776 79.2659 11.8607C80.649 13.244 81.5076 15.1533 81.5076 17.2546V67.8645C81.5076 69.9659 80.649 71.8752 79.2659 73.2584C77.8827 74.6415 75.9734 75.5001 73.872 75.5001H8.12784C6.02648 75.5001 4.1171 74.6415 2.73395 73.2584C1.35084 71.8752 0.492249 69.9659 0.492249 67.8645V17.2546C0.492249 15.1533 1.35084 13.244 2.73395 11.8608C4.11715 10.4776 6.02653 9.61905 8.12784 9.61905ZM73.872 12.7441H8.12784C6.88907 12.7441 5.76163 13.2521 4.94342 14.0703C4.12526 14.8885 3.61725 16.0159 3.61725 17.2546V67.8645C3.61725 69.1033 4.12526 70.2306 4.94342 71.0489C5.76168 71.867 6.88907 72.375 8.12784 72.375H73.872C75.1107 72.375 76.2382 71.867 77.0564 71.0489C77.8746 70.2306 78.3826 69.1033 78.3826 67.8645V17.2546C78.3826 16.0159 77.8746 14.8885 77.0564 14.0703C76.2382 13.2521 75.1107 12.7441 73.872 12.7441V12.7441Z" fill="white"/>
<path d="M2.05475 25.827C1.19181 25.827 0.492249 26.5266 0.492249 27.3895C0.492249 28.2525 1.19181 28.9521 2.05475 28.9521H79.9454C80.8083 28.9521 81.5079 28.2525 81.5079 27.3895C81.5079 26.5266 80.8083 25.827 79.9454 25.827H2.05475Z" fill="white"/>
<path d="M16.0359 14.0175C17.4904 14.0175 18.8074 14.6072 19.7609 15.5606C20.7142 16.514 21.304 17.8311 21.304 19.2856C21.304 20.7401 20.7142 22.0572 19.7609 23.0105C18.8075 23.9638 17.4904 24.5536 16.0359 24.5536C14.5814 24.5536 13.2643 23.9638 12.311 23.0105C11.3576 22.0571 10.7679 20.74 10.7679 19.2856C10.7679 17.8311 11.3577 16.514 12.311 15.5606C13.2643 14.6073 14.5814 14.0175 16.0359 14.0175ZM17.5514 17.7701C17.1637 17.3824 16.6278 17.1426 16.0359 17.1426C15.444 17.1426 14.9082 17.3824 14.5205 17.7701C14.1328 18.1578 13.8929 18.6936 13.8929 19.2856C13.8929 19.8775 14.1328 20.4133 14.5205 20.801C14.9082 21.1887 15.444 21.4285 16.0359 21.4285C16.6278 21.4285 17.1637 21.1886 17.5514 20.801C17.9391 20.4133 18.1789 19.8775 18.1789 19.2856C18.1789 18.6936 17.939 18.1578 17.5514 17.7701Z" fill="white"/>
<path d="M65.9644 14.0175C67.4189 14.0175 68.736 14.6073 69.6893 15.5606C70.6426 16.514 71.2324 17.8311 71.2324 19.2856C71.2324 20.74 70.6426 22.057 69.6893 23.0105C68.736 23.9638 67.4189 24.5536 65.9644 24.5536C64.5098 24.5536 63.1928 23.9638 62.2394 23.0105C61.2861 22.0572 60.6963 20.7401 60.6963 19.2856C60.6963 17.8311 61.2861 16.514 62.2394 15.5606C63.1928 14.6072 64.5098 14.0175 65.9644 14.0175ZM67.4798 17.7701C67.0921 17.3824 66.5563 17.1426 65.9644 17.1426C65.3724 17.1426 64.8365 17.3824 64.4489 17.7701C64.0612 18.1578 63.8213 18.6936 63.8213 19.2856C63.8213 19.8775 64.0612 20.4133 64.4489 20.801C64.8366 21.1887 65.3724 21.4285 65.9644 21.4285C66.5563 21.4285 67.0921 21.1886 67.4798 20.801C67.8675 20.4133 68.1073 19.8775 68.1073 19.2856C68.1073 18.6936 67.8674 18.1578 67.4798 17.7701Z" fill="white"/>
<path d="M17.5985 2.06245C17.5985 1.19951 16.8989 0.499954 16.036 0.499954C15.173 0.499954 14.4734 1.19951 14.4734 2.06245V15.5866C14.4734 16.4496 15.173 17.1491 16.0359 17.1491C16.8989 17.1491 17.5985 16.4496 17.5985 15.5866V2.06245Z" fill="white"/>
<path d="M67.5264 2.06245C67.5264 1.19951 66.8268 0.499954 65.9639 0.499954C65.1009 0.499954 64.4013 1.19951 64.4013 2.06245V15.5866C64.4013 16.4496 65.1009 17.1491 65.9638 17.1491C66.8268 17.1491 67.5264 16.4496 67.5264 15.5866V2.06245Z" fill="white"/>
<path d="M36.688 33.9174C35.8251 33.9174 35.1255 34.617 35.1255 35.4799C35.1255 36.3429 35.8251 37.0425 36.688 37.0425H42.2754C43.1383 37.0425 43.8379 36.3429 43.8379 35.48C43.8379 34.617 43.1383 33.9174 42.2754 33.9174H36.688Z" fill="white"/>
<path d="M51.6279 33.9174C50.765 33.9174 50.0654 34.617 50.0654 35.4799C50.0654 36.3429 50.765 37.0425 51.6279 37.0425H57.2152C58.0782 37.0425 58.7777 36.3429 58.7777 35.48C58.7777 34.617 58.0782 33.9174 57.2152 33.9174H51.6279Z" fill="white"/>
<path d="M65.7988 33.9174C64.9359 33.9174 64.2363 34.617 64.2363 35.4799C64.2363 36.3429 64.9359 37.0425 65.7988 37.0425H71.3861C72.2491 37.0425 72.9486 36.3429 72.9486 35.48C72.9486 34.617 72.2491 33.9174 71.3861 33.9174H65.7988Z" fill="white"/>
<path d="M10.614 44.0396C9.75104 44.0396 9.05148 44.7392 9.05148 45.6021C9.05148 46.465 9.75104 47.1647 10.614 47.1647H16.2013C17.0642 47.1647 17.7638 46.465 17.7638 45.6021C17.7638 44.7392 17.0642 44.0396 16.2013 44.0396H10.614Z" fill="white"/>
<path d="M23.651 44.0396C22.7881 44.0396 22.0885 44.7392 22.0885 45.6021C22.0885 46.465 22.7881 47.1647 23.651 47.1647H29.2384C30.1013 47.1647 30.8009 46.465 30.8009 45.6021C30.8009 44.7392 30.1013 44.0396 29.2384 44.0396H23.651Z" fill="white"/>
<path d="M36.688 44.0396C35.8251 44.0396 35.1255 44.7392 35.1255 45.6021C35.1255 46.465 35.8251 47.1647 36.688 47.1647H42.2754C43.1383 47.1647 43.8379 46.465 43.8379 45.6021C43.8379 44.7392 43.1383 44.0396 42.2754 44.0396H36.688Z" fill="white"/>
<path d="M51.6279 44.0396C50.765 44.0396 50.0654 44.7392 50.0654 45.6021C50.0654 46.465 50.765 47.1647 51.6279 47.1647H57.2152C58.0782 47.1647 58.7777 46.465 58.7777 45.6021C58.7777 44.7392 58.0782 44.0396 57.2152 44.0396H51.6279Z" fill="white"/>
<path d="M65.7988 44.0396C64.9359 44.0396 64.2363 44.7392 64.2363 45.6021C64.2363 46.465 64.9359 47.1647 65.7988 47.1647H71.3861C72.2491 47.1647 72.9486 46.465 72.9486 45.6021C72.9486 44.7392 72.2491 44.0396 71.3861 44.0396H65.7988Z" fill="white"/>
<path d="M10.614 54.1616C9.75104 54.1616 9.05148 54.8612 9.05148 55.7241C9.05148 56.5871 9.75104 57.2867 10.614 57.2867H16.2013C17.0642 57.2867 17.7638 56.5871 17.7638 55.7242C17.7638 54.8612 17.0642 54.1616 16.2013 54.1616H10.614Z" fill="white"/>
<path d="M23.651 54.1616C22.7881 54.1616 22.0885 54.8612 22.0885 55.7241C22.0885 56.5871 22.7881 57.2867 23.651 57.2867H29.2384C30.1013 57.2867 30.8009 56.5871 30.8009 55.7242C30.8009 54.8612 30.1013 54.1616 29.2384 54.1616H23.651Z" fill="white"/>
<path d="M36.688 54.1616C35.8251 54.1616 35.1255 54.8612 35.1255 55.7241C35.1255 56.5871 35.8251 57.2867 36.688 57.2867H42.2754C43.1383 57.2867 43.8379 56.5871 43.8379 55.7242C43.8379 54.8612 43.1383 54.1616 42.2754 54.1616H36.688Z" fill="white"/>
<path d="M51.6279 54.1616C50.765 54.1616 50.0654 54.8612 50.0654 55.7241C50.0654 56.5871 50.765 57.2867 51.6279 57.2867H57.2152C58.0782 57.2867 58.7777 56.5871 58.7777 55.7242C58.7777 54.8612 58.0782 54.1616 57.2152 54.1616H51.6279Z" fill="white"/>
<path d="M65.7988 54.1616C64.9359 54.1616 64.2363 54.8612 64.2363 55.7241C64.2363 56.5871 64.9359 57.2867 65.7988 57.2867H71.3861C72.2491 57.2867 72.9486 56.5871 72.9486 55.7242C72.9486 54.8612 72.2491 54.1616 71.3861 54.1616H65.7988Z" fill="white"/>
<path d="M10.614 64.2837C9.75104 64.2837 9.05148 64.9833 9.05148 65.8462C9.05148 66.7092 9.75104 67.4088 10.614 67.4088H16.2013C17.0642 67.4088 17.7638 66.7092 17.7638 65.8462C17.7638 64.9833 17.0642 64.2837 16.2013 64.2837H10.614Z" fill="white"/>
<path d="M23.651 64.2837C22.7881 64.2837 22.0885 64.9833 22.0885 65.8462C22.0885 66.7092 22.7881 67.4088 23.651 67.4088H29.2384C30.1013 67.4088 30.8009 66.7092 30.8009 65.8462C30.8009 64.9833 30.1013 64.2837 29.2384 64.2837H23.651Z" fill="white"/>
<path d="M36.688 64.2837C35.8251 64.2837 35.1255 64.9833 35.1255 65.8462C35.1255 66.7092 35.8251 67.4088 36.688 67.4088H42.2754C43.1383 67.4088 43.8379 66.7092 43.8379 65.8462C43.8379 64.9833 43.1383 64.2837 42.2754 64.2837H36.688Z" fill="white"/>
</svg>
