<?xml version="1.0" encoding="UTF-8"?>
<!DOCTYPE svg PUBLIC "-//W3C//DTD SVG 1.1//EN" "http://www.w3.org/Graphics/SVG/1.1/DTD/svg11.dtd">
<svg xmlns="http://www.w3.org/2000/svg" version="1.1" width="937px" height="338px" style="shape-rendering:geometricPrecision; text-rendering:geometricPrecision; image-rendering:optimizeQuality; fill-rule:evenodd; clip-rule:evenodd" xmlns:xlink="http://www.w3.org/1999/xlink">
<g><path style="opacity:0.97" fill="#e95c0f" d="M -0.5,-0.5 C 20.5,-0.5 41.5,-0.5 62.5,-0.5C 62.5,4.5 62.5,9.5 62.5,14.5C 46.5,14.5 30.5,14.5 14.5,14.5C 14.5,24.1667 14.5,33.8333 14.5,43.5C 28.1667,43.5 41.8333,43.5 55.5,43.5C 55.5,48.1667 55.5,52.8333 55.5,57.5C 41.8333,57.5 28.1667,57.5 14.5,57.5C 14.5,71.8333 14.5,86.1667 14.5,100.5C 9.5,100.5 4.5,100.5 -0.5,100.5C -0.5,66.8333 -0.5,33.1667 -0.5,-0.5 Z"/></g>
<g><path style="opacity:0.958" fill="#e85c0e" d="M 203.5,-0.5 C 208.5,-0.5 213.5,-0.5 218.5,-0.5C 218.333,10.8382 218.5,22.1716 219,33.5C 228.564,26.4945 238.73,25.6612 249.5,31C 254.694,34.5235 257.861,39.3568 259,45.5C 259.5,63.8303 259.667,82.1636 259.5,100.5C 254.5,100.5 249.5,100.5 244.5,100.5C 244.667,84.1633 244.5,67.8299 244,51.5C 239.436,42.3201 232.603,40.1534 223.5,45C 221.383,46.7309 219.883,48.8976 219,51.5C 218.5,67.8299 218.333,84.1633 218.5,100.5C 213.5,100.5 208.5,100.5 203.5,100.5C 203.5,66.8333 203.5,33.1667 203.5,-0.5 Z"/></g>
<g><path style="opacity:0.965" fill="#e95c0e" d="M 279.5,-0.5 C 284.5,-0.5 289.5,-0.5 294.5,-0.5C 294.333,10.8382 294.5,22.1716 295,33.5C 301.83,27.8424 309.664,26.009 318.5,28C 325.909,30.4084 331.076,35.2417 334,42.5C 335.45,61.7787 335.95,81.112 335.5,100.5C 330.5,100.5 325.5,100.5 320.5,100.5C 320.667,84.4965 320.5,68.4965 320,52.5C 315.971,42.5753 309.138,40.0753 299.5,45C 297.19,46.6374 295.69,48.804 295,51.5C 294.5,67.8299 294.333,84.1633 294.5,100.5C 289.5,100.5 284.5,100.5 279.5,100.5C 279.5,66.8333 279.5,33.1667 279.5,-0.5 Z"/></g>
<g><path style="opacity:0.966" fill="#e85d0f" d="M 488.5,-0.5 C 493.5,-0.5 498.5,-0.5 503.5,-0.5C 503.333,10.8382 503.5,22.1716 504,33.5C 510.83,27.8424 518.664,26.009 527.5,28C 534.909,30.4084 540.076,35.2417 543,42.5C 544.45,61.7787 544.95,81.112 544.5,100.5C 539.5,100.5 534.5,100.5 529.5,100.5C 529.667,84.4965 529.5,68.4965 529,52.5C 524.971,42.5753 518.138,40.0753 508.5,45C 506.19,46.6374 504.69,48.804 504,51.5C 503.5,67.8299 503.333,84.1633 503.5,100.5C 498.5,100.5 493.5,100.5 488.5,100.5C 488.5,66.8333 488.5,33.1667 488.5,-0.5 Z"/></g>
<g><path style="opacity:0.952" fill="#e95c0e" d="M 694.5,-0.5 C 699.5,-0.5 704.5,-0.5 709.5,-0.5C 709.333,10.8382 709.5,22.1716 710,33.5C 719.564,26.4945 729.73,25.6612 740.5,31C 745.694,34.5235 748.861,39.3568 750,45.5C 750.5,63.8303 750.667,82.1636 750.5,100.5C 745.5,100.5 740.5,100.5 735.5,100.5C 735.667,84.1633 735.5,67.8299 735,51.5C 730.436,42.3201 723.603,40.1534 714.5,45C 712.383,46.7309 710.883,48.8976 710,51.5C 709.5,67.8299 709.333,84.1633 709.5,100.5C 704.5,100.5 699.5,100.5 694.5,100.5C 694.5,66.8333 694.5,33.1667 694.5,-0.5 Z"/></g>
<g><path style="opacity:0.985" fill="#e85d0e" d="M 845.5,-0.5 C 850.5,-0.5 855.5,-0.5 860.5,-0.5C 860.333,27.1687 860.5,54.8353 861,82.5C 863.264,85.6528 866.431,86.9861 870.5,86.5C 870.5,91.1667 870.5,95.8333 870.5,100.5C 863.804,101.151 857.471,99.9846 851.5,97C 849.383,95.2691 847.883,93.1024 847,90.5C 845.539,60.2085 845.039,29.8751 845.5,-0.5 Z"/></g>
<g><path style="opacity:0.962" fill="#e95c0e" d="M 82.5,27.5 C 90.5705,27.1367 98.5705,27.6367 106.5,29C 114.886,31.3858 119.72,36.8858 121,45.5C 121.5,63.8303 121.667,82.1636 121.5,100.5C 116.5,100.5 111.5,100.5 106.5,100.5C 107.187,94.4012 105.854,93.9012 102.5,99C 89.3226,103.766 77.8226,101.266 68,91.5C 62.0659,79.8833 63.8993,69.7166 73.5,61C 75.9573,59.4379 78.624,58.4379 81.5,58C 89.8267,57.5003 98.16,57.3336 106.5,57.5C 106.665,54.1501 106.498,50.8168 106,47.5C 104.52,44.3374 102.02,42.504 98.5,42C 92.9358,40.99 87.6025,41.6567 82.5,44C 81.2986,44.9025 80.4652,46.0692 80,47.5C 76.3333,44.5 72.6667,41.5 69,38.5C 69.5465,35.9067 71.0465,33.7401 73.5,32C 76.5919,30.4541 79.5919,28.9541 82.5,27.5 Z M 84.5,70.5 C 91.8333,70.5 99.1667,70.5 106.5,70.5C 108.718,81.7963 104.218,87.1297 93,86.5C 85.7023,87.6089 80.869,84.7756 78.5,78C 79.6217,74.7203 81.6217,72.2203 84.5,70.5 Z"/></g>
<g><path style="opacity:0.959" fill="#e95d0e" d="M 158.5,27.5 C 172.511,24.8874 183.844,29.0541 192.5,40C 189.35,43.4794 185.85,46.646 182,49.5C 179.02,46.5253 175.52,44.3586 171.5,43C 161.855,40.9027 155.355,44.4027 152,53.5C 149.543,62.4415 150.21,71.1082 154,79.5C 159.28,85.1702 165.78,87.0035 173.5,85C 176.902,83.6001 179.736,81.4335 182,78.5C 186.534,81.3534 189.867,85.02 192,89.5C 175.954,105.062 159.62,105.396 143,90.5C 134.646,75.8569 133.313,60.5236 139,44.5C 143.402,36.389 149.902,30.7223 158.5,27.5 Z"/></g>
<g><path style="opacity:0.964" fill="#e95d0e" d="M 372.5,27.5 C 389.61,24.301 401.443,30.6344 408,46.5C 410.242,59.2539 409.909,71.9205 407,84.5C 397.5,100.556 384,105.056 366.5,98C 354.771,89.857 349.771,78.5237 351.5,64C 349.69,46.4221 356.69,34.2554 372.5,27.5 Z M 376.5,42.5 C 385.576,41.0855 391.409,44.7522 394,53.5C 394.667,60.5 394.667,67.5 394,74.5C 390.591,84.7855 383.758,87.9521 373.5,84C 369.675,81.5119 367.508,78.0119 367,73.5C 365.886,64.9897 366.552,56.6563 369,48.5C 371.114,45.8792 373.614,43.8792 376.5,42.5 Z"/></g>
<g><path style="opacity:0.956" fill="#e95d0e" d="M 443.5,27.5 C 457.261,24.9739 468.594,28.9739 477.5,39.5C 474.468,43.3659 470.968,46.6992 467,49.5C 459.935,42.1945 451.768,40.6945 442.5,45C 439.894,46.9384 438.061,49.4384 437,52.5C 434.476,61.788 435.142,70.788 439,79.5C 448.331,88.4323 457.498,88.099 466.5,78.5C 470.279,81.1448 473.779,84.1448 477,87.5C 476.454,90.0933 474.954,92.2599 472.5,94C 456.107,105.031 440.94,103.531 427,89.5C 422.176,81.7229 420.009,73.2229 420.5,64C 419.512,46.1013 427.178,33.9346 443.5,27.5 Z"/></g>
<g><path style="opacity:0.962" fill="#e95c0e" d="M 578.5,27.5 C 586.238,27.1439 593.905,27.6439 601.5,29C 606.782,30.4602 611.115,33.2935 614.5,37.5C 611.858,41.3094 609.025,44.9761 606,48.5C 598.124,41.9887 589.29,40.1554 579.5,43C 574.006,47.5087 574.339,51.5087 580.5,55C 588.157,56.0548 595.823,57.0548 603.5,58C 612.228,61.7415 616.561,68.4081 616.5,78C 616.223,88.2897 611.223,95.2897 601.5,99C 584.238,104.185 569.238,100.518 556.5,88C 559.301,84.0316 562.634,80.5316 566.5,77.5C 575.761,86.6491 586.428,88.8158 598.5,84C 601.924,80.7353 602.257,77.2353 599.5,73.5C 590.179,71.7322 580.846,69.8989 571.5,68C 561.746,61.6063 558.579,52.7729 562,41.5C 565.283,34.1235 570.783,29.4568 578.5,27.5 Z"/></g>
<g><path style="opacity:0.963" fill="#e95c0e" d="M 649.5,27.5 C 663.511,24.8874 674.844,29.0541 683.5,40C 680.35,43.4794 676.85,46.646 673,49.5C 670.02,46.5253 666.52,44.3586 662.5,43C 652.897,40.9681 646.397,44.4681 643,53.5C 640.543,62.4415 641.21,71.1082 645,79.5C 650.28,85.1702 656.78,87.0035 664.5,85C 667.902,83.6001 670.736,81.4335 673,78.5C 677.534,81.3534 680.867,85.02 683,89.5C 666.954,105.062 650.62,105.396 634,90.5C 625.625,75.8636 624.292,60.5303 630,44.5C 634.402,36.389 640.902,30.7223 649.5,27.5 Z"/></g>
<g><path style="opacity:0.953" fill="#e95c0e" d="M 936.5,48.5 C 936.5,55.8333 936.5,63.1667 936.5,70.5C 922.163,70.3334 907.829,70.5001 893.5,71C 895.7,83.4385 903.034,88.4385 915.5,86C 919.274,84.6981 922.441,82.5314 925,79.5C 928.522,82.2659 931.855,85.2659 935,88.5C 934.052,91.8006 931.885,94.3006 928.5,96C 912.906,104.602 898.739,102.768 886,90.5C 877.105,74.215 876.439,57.5484 884,40.5C 894.481,26.8689 907.648,23.7022 923.5,31C 929.619,35.6035 933.952,41.4368 936.5,48.5 Z M 904.5,41.5 C 915.975,40.7282 921.641,46.0615 921.5,57.5C 912.161,57.6665 902.827,57.4998 893.5,57C 894.366,49.664 898.032,44.4974 904.5,41.5 Z"/></g>
<g><path style="opacity:0.971" fill="#e95c0f" d="M 770.5,27.5 C 775.5,27.5 780.5,27.5 785.5,27.5C 785.333,44.17 785.5,60.8367 786,77.5C 790.506,85.4443 797.006,87.6109 805.5,84C 808.467,81.8995 810.3,79.0662 811,75.5C 811.5,59.5035 811.667,43.5035 811.5,27.5C 816.5,27.5 821.5,27.5 826.5,27.5C 826.5,51.8333 826.5,76.1667 826.5,100.5C 821.5,100.5 816.5,100.5 811.5,100.5C 811.662,98.4727 811.495,96.4727 811,94.5C 797.383,104.697 785.049,103.363 774,90.5C 772.725,88.2827 771.725,85.9494 771,83.5C 770.5,64.8363 770.333,46.1696 770.5,27.5 Z"/></g>
<g><path style="opacity:0.948" fill="#e95c0e" d="M -0.5,134.5 C 14.1705,134.333 28.8371,134.5 43.5,135C 58.5586,140.07 67.0586,150.57 69,166.5C 78.2461,222.087 55.0795,245.087 -0.5,235.5C -0.5,201.833 -0.5,168.167 -0.5,134.5 Z M 15.5,149.5 C 23.1739,149.334 30.8406,149.5 38.5,150C 46.2068,152.876 51.0401,158.376 53,166.5C 53.9264,180.223 53.593,193.889 52,207.5C 48.6633,215.171 42.83,219.338 34.5,220C 28.1754,220.5 21.8421,220.666 15.5,220.5C 15.5,196.833 15.5,173.167 15.5,149.5 Z"/></g>
<g><path style="opacity:0.967" fill="#e95d0e" d="M 576.5,134.5 C 581.5,134.5 586.5,134.5 591.5,134.5C 591.5,168.167 591.5,201.833 591.5,235.5C 586.5,235.5 581.5,235.5 576.5,235.5C 576.662,233.473 576.495,231.473 576,229.5C 564.985,238.596 553.819,238.762 542.5,230C 540.273,227.436 538.439,224.603 537,221.5C 535.43,208.214 535.097,194.881 536,181.5C 539.999,165.57 550.166,159.404 566.5,163C 570.274,164.302 573.441,166.469 576,169.5C 576.5,157.838 576.667,146.171 576.5,134.5 Z M 558.5,177.5 C 568.583,175.456 574.416,179.456 576,189.5C 577.08,198.326 576.413,206.993 574,215.5C 569.509,220.259 564.009,221.759 557.5,220C 553.99,217.831 551.823,214.664 551,210.5C 550.333,202.833 550.333,195.167 551,187.5C 551.846,182.76 554.346,179.426 558.5,177.5 Z"/></g>
<g><path style="opacity:0.94" fill="#e95d0e" d="M 220.5,141.5 C 225.5,141.5 230.5,141.5 235.5,141.5C 235.5,148.5 235.5,155.5 235.5,162.5C 238.833,162.5 242.167,162.5 245.5,162.5C 245.5,166.5 245.5,170.5 245.5,174.5C 242.167,174.5 238.833,174.5 235.5,174.5C 235.333,189.17 235.5,203.837 236,218.5C 238.67,220.797 241.836,221.797 245.5,221.5C 245.5,226.167 245.5,230.833 245.5,235.5C 238.779,236.249 232.446,235.082 226.5,232C 224.383,230.269 222.883,228.102 222,225.5C 220.543,208.57 220.043,191.57 220.5,174.5C 218.167,174.5 215.833,174.5 213.5,174.5C 213.5,170.5 213.5,166.5 213.5,162.5C 215.833,162.5 218.167,162.5 220.5,162.5C 220.5,155.5 220.5,148.5 220.5,141.5 Z"/></g>
<g><path style="opacity:0.962" fill="#e95c0e" d="M 104.5,162.5 C 130.848,160.348 143.182,172.514 141.5,199C 143.737,223.42 132.737,235.753 108.5,236C 96.202,233.702 88.3687,226.535 85,214.5C 82.6556,201.983 83.3223,189.65 87,177.5C 90.8885,170.103 96.7219,165.103 104.5,162.5 Z M 108.5,177.5 C 117.193,176.09 123.027,179.424 126,187.5C 126.667,195.167 126.667,202.833 126,210.5C 122.748,219.044 116.581,222.211 107.5,220C 100.349,214.935 97.3486,207.935 98.5,199C 97.2027,189.438 100.536,182.271 108.5,177.5 Z"/></g>
<g><path style="opacity:0.969" fill="#e95d0e" d="M 157.5,162.5 C 162.5,162.5 167.5,162.5 172.5,162.5C 172.337,164.857 172.503,167.19 173,169.5C 179.886,162.908 188.052,160.741 197.5,163C 200.726,164.106 203.393,165.939 205.5,168.5C 202.536,172.965 199.036,176.965 195,180.5C 186.144,175.217 179.144,176.884 174,185.5C 172.544,202.097 172.044,218.763 172.5,235.5C 167.5,235.5 162.5,235.5 157.5,235.5C 157.5,211.167 157.5,186.833 157.5,162.5 Z"/></g>
<g><path style="opacity:0.958" fill="#e95c0e" d="M 262.5,162.5 C 267.5,162.5 272.5,162.5 277.5,162.5C 277.337,164.857 277.503,167.19 278,169.5C 282.974,164.118 289.141,161.785 296.5,162.5C 300.256,162.463 303.922,162.963 307.5,164C 310.5,166.167 313.5,168.333 316.5,170.5C 324.772,162.948 334.438,160.448 345.5,163C 356.427,166.02 362.26,173.186 363,184.5C 363.5,201.497 363.667,218.497 363.5,235.5C 358.5,235.5 353.5,235.5 348.5,235.5C 348.667,220.163 348.5,204.83 348,189.5C 343.661,177.253 335.828,174.42 324.5,181C 322.898,182.935 321.731,185.101 321,187.5C 320.5,203.497 320.333,219.497 320.5,235.5C 315.5,235.5 310.5,235.5 305.5,235.5C 305.667,219.83 305.5,204.163 305,188.5C 303.378,181.424 298.878,177.758 291.5,177.5C 284.46,178.039 279.96,181.706 278,188.5C 277.5,204.163 277.333,219.83 277.5,235.5C 272.5,235.5 267.5,235.5 262.5,235.5C 262.5,211.167 262.5,186.833 262.5,162.5 Z"/></g>
<g><path style="opacity:0.963" fill="#e95d0f" d="M 383.5,162.5 C 388.5,162.5 393.5,162.5 398.5,162.5C 398.333,178.503 398.5,194.503 399,210.5C 402.376,220.268 408.876,223.101 418.5,219C 420.917,217.337 422.75,215.171 424,212.5C 424.5,195.837 424.667,179.17 424.5,162.5C 429.5,162.5 434.5,162.5 439.5,162.5C 439.5,186.833 439.5,211.167 439.5,235.5C 434.5,235.5 429.5,235.5 424.5,235.5C 424.662,233.473 424.495,231.473 424,229.5C 410.522,239.691 398.188,238.358 387,225.5C 385.803,222.911 384.803,220.244 384,217.5C 383.5,199.17 383.333,180.836 383.5,162.5 Z"/></g>
<g><path style="opacity:0.962" fill="#e95d0e" d="M 459.5,162.5 C 464.5,162.5 469.5,162.5 474.5,162.5C 474.338,164.527 474.505,166.527 475,168.5C 481.83,162.842 489.664,161.009 498.5,163C 507.096,165.929 512.596,171.763 515,180.5C 515.5,198.83 515.667,217.164 515.5,235.5C 510.5,235.5 505.5,235.5 500.5,235.5C 500.667,219.163 500.5,202.83 500,186.5C 495.436,177.32 488.603,175.153 479.5,180C 477.383,181.731 475.883,183.898 475,186.5C 474.5,202.83 474.333,219.163 474.5,235.5C 469.5,235.5 464.5,235.5 459.5,235.5C 459.5,211.167 459.5,186.833 459.5,162.5 Z"/></g>
<g><path style="opacity:0.81" fill="#000000" d="M 487.5,283.5 C 489.042,284.301 490.708,284.634 492.5,284.5C 492.238,298.529 492.571,312.529 493.5,326.5C 490.956,326.896 488.789,326.229 487,324.5C 479.134,328.566 473.468,326.566 470,318.5C 468.535,311.426 469.701,304.926 473.5,299C 477.916,295.9 482.416,295.733 487,298.5C 487.499,293.511 487.666,288.511 487.5,283.5 Z M 478.5,301.5 C 481.685,301.02 484.519,301.686 487,303.5C 487.667,308.5 487.667,313.5 487,318.5C 484.441,321.349 481.274,322.183 477.5,321C 473.346,314.252 473.68,307.752 478.5,301.5 Z"/></g>
<g><path style="opacity:0.804" fill="#000000" d="M 817.5,283.5 C 819.042,284.301 820.708,284.634 822.5,284.5C 822.238,298.529 822.571,312.529 823.5,326.5C 820.956,326.896 818.789,326.229 817,324.5C 809.134,328.566 803.468,326.566 800,318.5C 798.535,311.426 799.701,304.926 803.5,299C 807.916,295.9 812.416,295.733 817,298.5C 817.499,293.511 817.666,288.511 817.5,283.5 Z M 808.5,301.5 C 811.685,301.02 814.519,301.686 817,303.5C 817.667,308.5 817.667,313.5 817,318.5C 809.31,323.738 805.144,321.571 804.5,312C 804.852,308.062 806.186,304.562 808.5,301.5 Z"/></g>
<g><path style="opacity:0.713" fill="#000000" d="M 67.5,284.5 C 72.6804,285.404 73.6804,287.904 70.5,292C 66,292.833 64.1667,291 65,286.5C 65.9947,285.934 66.828,285.267 67.5,284.5 Z"/></g>
<g><path style="opacity:0.728" fill="#000000" d="M 183.5,284.5 C 187.988,285.81 188.988,288.31 186.5,292C 181.333,293.5 179.5,291.667 181,286.5C 181.995,285.934 182.828,285.267 183.5,284.5 Z"/></g>
<g><path style="opacity:0.758" fill="#000000" d="M 290.5,284.5 C 293.518,284.335 296.518,284.502 299.5,285C 301.592,285.953 301.925,287.286 300.5,289C 293.752,287.585 291.085,290.418 292.5,297.5C 294.924,297.192 297.257,297.526 299.5,298.5C 297.937,301.029 295.604,302.029 292.5,301.5C 292.5,309.833 292.5,318.167 292.5,326.5C 290.5,326.5 288.5,326.5 286.5,326.5C 287.049,317.365 286.382,308.365 284.5,299.5C 285.959,296.331 286.792,292.998 287,289.5C 287.997,287.677 289.164,286.01 290.5,284.5 Z"/></g>
<g><path style="opacity:0.833" fill="#000000" d="M 411.5,284.5 C 413.5,284.5 415.5,284.5 417.5,284.5C 417.333,296.838 417.5,309.171 418,321.5C 419.883,322.653 420.716,324.319 420.5,326.5C 417.635,326.945 415.135,326.278 413,324.5C 412.779,311.135 412.279,297.801 411.5,284.5 Z"/></g>
<g><path style="opacity:0.743" fill="#000000" d="M 428.5,284.5 C 433.266,285.158 434.6,287.658 432.5,292C 428.798,293.393 426.798,292.226 426.5,288.5C 426.803,286.886 427.47,285.552 428.5,284.5 Z"/></g>
<g><path style="opacity:0.743" fill="#000000" d="M 575.5,284.5 C 576.583,284.539 577.583,284.873 578.5,285.5C 580.89,291.608 579.056,293.608 573,291.5C 571.916,288.341 572.75,286.008 575.5,284.5 Z"/></g>
<g><path style="opacity:0.777" fill="#000000" d="M 523.5,285.5 C 529.489,284.888 534.823,286.388 539.5,290C 538.845,291.487 537.845,292.653 536.5,293.5C 531.229,289.616 526.062,289.616 521,293.5C 520.104,296.025 520.604,298.192 522.5,300C 527.167,302 531.833,304 536.5,306C 542.608,314.125 541.275,320.791 532.5,326C 528.167,326.667 523.833,326.667 519.5,326C 513.487,325.383 512.32,322.883 516,318.5C 521.388,323.027 526.888,323.36 532.5,319.5C 535.072,316.265 534.739,313.265 531.5,310.5C 527.616,308.705 523.616,307.205 519.5,306C 513.924,301.305 513.091,295.805 517,289.5C 519.013,287.752 521.18,286.418 523.5,285.5 Z"/></g>
<g><path style="opacity:0.798" fill="#000000" d="M -0.5,286.5 C 1.5,286.5 3.5,286.5 5.5,286.5C 5.3335,297.172 5.50016,307.839 6,318.5C 9.71904,321.902 13.8857,322.402 18.5,320C 19.1258,319.25 19.6258,318.416 20,317.5C 20.4998,307.172 20.6665,296.839 20.5,286.5C 22.1667,286.5 23.8333,286.5 25.5,286.5C 25.9586,298.601 25.4586,310.601 24,322.5C 22.786,324.049 21.286,325.215 19.5,326C 13.2939,327.245 7.46053,326.412 2,323.5C 1.24316,321.685 0.409824,320.019 -0.5,318.5C -0.5,307.833 -0.5,297.167 -0.5,286.5 Z"/></g>
<g><path style="opacity:0.779" fill="#000000" d="M 325.5,286.5 C 328.394,286.042 330.894,286.709 333,288.5C 337.146,301.101 340.979,313.768 344.5,326.5C 342.5,326.5 340.5,326.5 338.5,326.5C 337.5,322.5 336.5,318.5 335.5,314.5C 330.833,314.5 326.167,314.5 321.5,314.5C 320.5,318.5 319.5,322.5 318.5,326.5C 316.396,326.799 314.396,326.466 312.5,325.5C 317.044,312.535 321.377,299.535 325.5,286.5 Z M 328.5,294.5 C 330.534,298.927 332.2,303.594 333.5,308.5C 330.167,309.833 326.833,309.833 323.5,308.5C 325.175,303.805 326.842,299.138 328.5,294.5 Z"/></g>
<g><path style="opacity:0.777" fill="#000000" d="M 853.5,286.5 C 856.167,286.5 858.833,286.5 861.5,286.5C 865.298,299.893 869.298,313.226 873.5,326.5C 871.396,326.799 869.396,326.466 867.5,325.5C 865.883,321.986 864.883,318.319 864.5,314.5C 859.786,314.173 855.12,314.507 850.5,315.5C 848.883,319.014 847.883,322.681 847.5,326.5C 845.5,326.5 843.5,326.5 841.5,326.5C 845.702,313.226 849.702,299.893 853.5,286.5 Z M 856.5,293.5 C 858.97,298.399 860.97,303.565 862.5,309C 859.183,309.498 855.85,309.665 852.5,309.5C 854.039,304.216 855.373,298.882 856.5,293.5 Z"/></g>
<g><path style="opacity:0.795" fill="#000000" d="M 201.5,288.5 C 202.477,291.287 202.81,294.287 202.5,297.5C 204.5,297.5 206.5,297.5 208.5,297.5C 208.67,298.822 208.337,299.989 207.5,301C 205.527,301.495 203.527,301.662 201.5,301.5C 201.28,308.543 201.614,315.543 202.5,322.5C 204.5,322.5 206.5,322.5 208.5,322.5C 208.5,323.833 208.5,325.167 208.5,326.5C 205.136,327.778 201.803,327.612 198.5,326C 197.874,325.25 197.374,324.416 197,323.5C 196.5,316.174 196.334,308.841 196.5,301.5C 195.5,301.5 194.5,301.5 193.5,301.5C 193.5,300.167 193.5,298.833 193.5,297.5C 194.5,297.5 195.5,297.5 196.5,297.5C 195.411,292.715 197.077,289.715 201.5,288.5 Z"/></g>
<g><path style="opacity:0.795" fill="#000000" d="M 904.5,288.5 C 905.477,291.287 905.81,294.287 905.5,297.5C 907.5,297.5 909.5,297.5 911.5,297.5C 911.67,298.822 911.337,299.989 910.5,301C 908.527,301.495 906.527,301.662 904.5,301.5C 904.28,308.543 904.614,315.543 905.5,322.5C 907.5,322.5 909.5,322.5 911.5,322.5C 911.5,323.833 911.5,325.167 911.5,326.5C 908.136,327.778 904.803,327.612 901.5,326C 900.874,325.25 900.374,324.416 900,323.5C 899.5,316.174 899.334,308.841 899.5,301.5C 898.5,301.5 897.5,301.5 896.5,301.5C 896.5,300.167 896.5,298.833 896.5,297.5C 897.5,297.5 898.5,297.5 899.5,297.5C 898.411,292.715 900.077,289.715 904.5,288.5 Z"/></g>
<g><path style="opacity:0.766" fill="#000000" d="M 163.5,295.5 C 166.137,296.164 168.803,296.831 171.5,297.5C 172.904,299.547 172.571,301.214 170.5,302.5C 166.859,300.115 163.359,300.115 160,302.5C 159.333,303.833 159.333,305.167 160,306.5C 163.778,308.073 167.611,309.573 171.5,311C 176.446,319.95 173.78,325.45 163.5,327.5C 159.459,327.11 155.793,325.776 152.5,323.5C 152.833,321.833 153.833,320.833 155.5,320.5C 157.881,321.607 160.381,322.273 163,322.5C 167.256,322.581 168.923,320.581 168,316.5C 164.768,314.477 161.268,312.977 157.5,312C 152.632,307.828 152.298,303.328 156.5,298.5C 158.764,297.131 161.097,296.131 163.5,295.5 Z"/></g>
<g><path style="opacity:0.768" fill="#000000" d="M 710.5,295.5 C 713.417,296.417 716.417,297.084 719.5,297.5C 719.617,299.484 718.95,301.15 717.5,302.5C 714.656,300.897 711.656,300.397 708.5,301C 706.398,302.733 706.065,304.733 707.5,307C 711.493,308.122 715.326,309.622 719,311.5C 722.072,324.75 716.906,329.584 703.5,326C 699.033,324.934 698.533,323.101 702,320.5C 705.359,322.144 708.859,322.644 712.5,322C 715.838,320.012 716.172,317.679 713.5,315C 709.659,314.124 705.993,312.791 702.5,311C 698.457,302.252 701.123,297.085 710.5,295.5 Z"/></g>
<g><path style="opacity:0.765" fill="#000000" d="M 936.5,312.5 C 936.5,315.5 936.5,318.5 936.5,321.5C 930.279,328.735 923.279,329.401 915.5,323.5C 915.833,321.833 916.833,320.833 918.5,320.5C 921.664,322.194 924.998,322.694 928.5,322C 931.838,320.012 932.172,317.679 929.5,315C 925.38,314.181 921.546,312.681 918,310.5C 914.712,301.684 917.712,296.684 927,295.5C 929.738,296.482 932.572,297.148 935.5,297.5C 935.617,299.484 934.95,301.15 933.5,302.5C 930.656,300.897 927.656,300.397 924.5,301C 922.398,302.733 922.065,304.733 923.5,307C 928.171,308.164 932.504,309.997 936.5,312.5 Z"/></g>
<g><path style="opacity:0.804" fill="#000000" d="M 36.5,296.5 C 38.9115,296.137 40.4115,297.137 41,299.5C 46.4312,295.182 51.4312,295.516 56,300.5C 56.4998,309.16 56.6664,317.827 56.5,326.5C 54.8333,326.5 53.1667,326.5 51.5,326.5C 51.6664,318.826 51.4997,311.159 51,303.5C 47.5602,301.006 44.2268,301.34 41,304.5C 40.5003,311.826 40.3337,319.159 40.5,326.5C 38.8333,326.5 37.1667,326.5 35.5,326.5C 35.7932,317.292 35.4599,308.125 34.5,299C 35.0556,297.989 35.7222,297.156 36.5,296.5 Z"/></g>
<g><path style="opacity:0.71" fill="#000000" d="M 66.5,296.5 C 68.1667,296.5 69.8333,296.5 71.5,296.5C 71.5,306.5 71.5,316.5 71.5,326.5C 69.5,326.5 67.5,326.5 65.5,326.5C 65.1926,316.418 65.5259,306.418 66.5,296.5 Z"/></g>
<g><path style="opacity:0.77" fill="#000000" d="M 77.5,296.5 C 79.1439,296.286 80.6439,296.62 82,297.5C 84.3333,304.5 86.6667,311.5 89,318.5C 91.4763,311.573 93.643,304.573 95.5,297.5C 97.604,297.201 99.604,297.534 101.5,298.5C 98.1667,307.5 94.8333,316.5 91.5,325.5C 89.604,326.466 87.604,326.799 85.5,326.5C 83.0063,317.185 80.0063,308.019 76.5,299C 76.7432,298.098 77.0766,297.265 77.5,296.5 Z"/></g>
<g><path style="opacity:0.788" fill="#000000" d="M 112.5,296.5 C 124.257,295.294 129.257,300.628 127.5,312.5C 121.833,312.5 116.167,312.5 110.5,312.5C 111.964,321.983 116.797,324.316 125,319.5C 128.398,322.858 127.564,325.025 122.5,326C 108.922,327.418 103.089,321.252 105,307.5C 105.764,302.582 108.264,298.916 112.5,296.5 Z M 115.5,300.5 C 119.959,301.293 122.292,303.96 122.5,308.5C 118.445,308.824 114.445,308.491 110.5,307.5C 111.065,304.284 112.732,301.951 115.5,300.5 Z"/></g>
<g><path style="opacity:0.717" fill="#000000" d="M 136.5,296.5 C 137.833,296.5 139.167,296.5 140.5,296.5C 140.351,297.552 140.517,298.552 141,299.5C 143.709,296.632 146.876,295.965 150.5,297.5C 149.833,298.833 149.167,300.167 148.5,301.5C 146.083,302.072 143.916,303.072 142,304.5C 141.5,311.826 141.334,319.159 141.5,326.5C 139.5,326.5 137.5,326.5 135.5,326.5C 135.818,316.917 135.485,307.417 134.5,298C 135.416,297.722 136.082,297.222 136.5,296.5 Z"/></g>
<g><path style="opacity:0.852" fill="#000000" d="M 182.5,296.5 C 183.833,296.5 185.167,296.5 186.5,296.5C 186.5,306.5 186.5,316.5 186.5,326.5C 184.833,326.5 183.167,326.5 181.5,326.5C 181.193,316.418 181.526,306.418 182.5,296.5 Z"/></g>
<g><path style="opacity:0.769" fill="#000000" d="M 220.5,337.5 C 219.167,337.5 217.833,337.5 216.5,337.5C 216.461,336.417 216.127,335.417 215.5,334.5C 218.564,333.101 220.564,330.768 221.5,327.5C 218.17,317.844 214.837,308.178 211.5,298.5C 213.173,296.914 215.173,296.247 217.5,296.5C 219.355,304.236 221.522,311.902 224,319.5C 226.155,312.545 228.155,305.545 230,298.5C 232.139,297.231 234.305,297.231 236.5,298.5C 233.033,308.068 229.866,317.734 227,327.5C 225.569,331.374 223.403,334.707 220.5,337.5 Z"/></g>
<g><path style="opacity:0.789" fill="#000000" d="M 261.5,296.5 C 275.043,296.226 280.543,302.893 278,316.5C 275.536,325.596 269.703,328.762 260.5,326C 255.662,322.489 253.329,317.656 253.5,311.5C 253.352,304.785 256.019,299.785 261.5,296.5 Z M 264.5,300.5 C 266.582,300.472 268.416,301.139 270,302.5C 272.835,308.019 273.169,313.686 271,319.5C 267.667,323.5 264.333,323.5 261,319.5C 259.524,314.924 259.19,310.257 260,305.5C 261.025,303.313 262.525,301.646 264.5,300.5 Z"/></g>
<g><path style="opacity:0.754" fill="#000000" d="M 355.5,337.5 C 353.5,337.5 351.5,337.5 349.5,337.5C 349.5,323.833 349.5,310.167 349.5,296.5C 351.167,296.5 352.833,296.5 354.5,296.5C 354.351,297.552 354.517,298.552 355,299.5C 359.144,296.228 363.644,295.728 368.5,298C 375.157,307.052 375.157,316.052 368.5,325C 364.57,326.751 360.57,326.918 356.5,325.5C 355.509,329.445 355.176,333.445 355.5,337.5 Z M 359.5,301.5 C 365.902,301.578 368.569,304.911 367.5,311.5C 368.388,317.066 366.222,320.733 361,322.5C 359.018,322.01 357.351,321.01 356,319.5C 355.333,314.5 355.333,309.5 356,304.5C 357.145,303.364 358.312,302.364 359.5,301.5 Z"/></g>
<g><path style="opacity:0.808" fill="#000000" d="M 386.5,337.5 C 384.833,337.5 383.167,337.5 381.5,337.5C 381.57,324.13 381.403,310.797 381,297.5C 383.382,296.134 385.548,296.467 387.5,298.5C 399.034,294.671 404.7,299.004 404.5,311.5C 404.759,323.585 399.093,328.251 387.5,325.5C 386.509,329.445 386.176,333.445 386.5,337.5 Z M 390.5,301.5 C 393.044,301.104 395.211,301.771 397,303.5C 400.04,309.209 400.04,314.876 397,320.5C 393.5,323.02 390.166,322.687 387,319.5C 386.333,314.5 386.333,309.5 387,304.5C 388.145,303.364 389.312,302.364 390.5,301.5 Z"/></g>
<g><path style="opacity:0.852" fill="#000000" d="M 428.5,296.5 C 429.833,296.5 431.167,296.5 432.5,296.5C 432.5,306.5 432.5,316.5 432.5,326.5C 430.833,326.5 429.167,326.5 427.5,326.5C 427.193,316.418 427.526,306.418 428.5,296.5 Z"/></g>
<g><path style="opacity:0.786" fill="#000000" d="M 447.5,296.5 C 459.08,295.413 464.413,300.746 463.5,312.5C 457.833,312.5 452.167,312.5 446.5,312.5C 445.735,318.24 448.235,321.573 454,322.5C 456.227,321.637 458.393,320.637 460.5,319.5C 463.044,321.392 463.044,323.225 460.5,325C 454.04,327.675 448.206,326.842 443,322.5C 440.54,316.755 439.873,310.755 441,304.5C 442.305,301.039 444.471,298.372 447.5,296.5 Z M 450.5,300.5 C 455.601,300.685 457.934,303.352 457.5,308.5C 453.833,308.5 450.167,308.5 446.5,308.5C 446.278,304.944 447.611,302.277 450.5,300.5 Z"/></g>
<g><path style="opacity:0.772" fill="#000000" d="M 554.5,296.5 C 559.14,295.736 563.14,296.903 566.5,300C 565.382,301.074 564.382,302.24 563.5,303.5C 559.103,300.279 555.603,300.946 553,305.5C 550.716,310.954 551.216,316.121 554.5,321C 557.957,322.859 561.124,322.359 564,319.5C 567.384,322.291 566.884,324.458 562.5,326C 554.924,328.128 549.758,325.628 547,318.5C 546.161,313.079 546.494,307.746 548,302.5C 549.494,299.686 551.66,297.686 554.5,296.5 Z"/></g>
<g><path style="opacity:0.852" fill="#000000" d="M 574.5,296.5 C 575.833,296.5 577.167,296.5 578.5,296.5C 578.5,306.5 578.5,316.5 578.5,326.5C 576.833,326.5 575.167,326.5 573.5,326.5C 573.193,316.418 573.526,306.418 574.5,296.5 Z"/></g>
<g><path style="opacity:0.792" fill="#000000" d="M 594.5,296.5 C 605.584,295.921 610.584,301.254 609.5,312.5C 603.833,312.5 598.167,312.5 592.5,312.5C 591.86,318.23 594.36,321.564 600,322.5C 602.413,321.976 604.58,320.976 606.5,319.5C 609.264,322.51 608.597,324.676 604.5,326C 598.684,327.409 593.517,326.242 589,322.5C 585.355,314.58 585.688,306.913 590,299.5C 591.652,298.601 593.152,297.601 594.5,296.5 Z M 596.5,300.5 C 601.601,300.685 603.934,303.352 603.5,308.5C 599.833,308.5 596.167,308.5 592.5,308.5C 592.278,304.944 593.611,302.277 596.5,300.5 Z"/></g>
<g><path style="opacity:0.804" fill="#000000" d="M 618.5,296.5 C 620.592,296.561 622.092,297.561 623,299.5C 627.7,295.601 632.366,295.601 637,299.5C 638.443,308.392 638.943,317.392 638.5,326.5C 636.833,326.5 635.167,326.5 633.5,326.5C 633.666,319.159 633.5,311.826 633,304.5C 632.592,302.59 631.425,301.59 629.5,301.5C 627.143,302.095 624.977,303.095 623,304.5C 622.5,311.826 622.334,319.159 622.5,326.5C 620.833,326.5 619.167,326.5 617.5,326.5C 617.779,317.465 617.445,308.465 616.5,299.5C 616.942,298.261 617.609,297.261 618.5,296.5 Z"/></g>
<g><path style="opacity:0.758" fill="#000000" d="M 653.5,296.5 C 656.518,296.335 659.518,296.502 662.5,297C 666.318,298.882 666.484,301.049 663,303.5C 657.503,299.994 653.837,301.327 652,307.5C 651.233,311.594 651.566,315.594 653,319.5C 656.455,323.413 659.955,323.413 663.5,319.5C 667.489,322.082 667.156,324.249 662.5,326C 651.19,328.365 645.523,323.699 645.5,312C 645.703,305.424 648.369,300.257 653.5,296.5 Z"/></g>
<g><path style="opacity:0.784" fill="#000000" d="M 678.5,296.5 C 690.084,295.417 695.418,300.751 694.5,312.5C 688.833,312.5 683.167,312.5 677.5,312.5C 676.735,318.24 679.235,321.573 685,322.5C 687.227,321.637 689.393,320.637 691.5,319.5C 694.044,321.392 694.044,323.225 691.5,325C 685.04,327.675 679.206,326.842 674,322.5C 671.54,316.755 670.873,310.755 672,304.5C 673.305,301.039 675.471,298.372 678.5,296.5 Z M 681.5,300.5 C 686.601,300.685 688.934,303.352 688.5,308.5C 684.833,308.5 681.167,308.5 677.5,308.5C 677.278,304.944 678.611,302.277 681.5,300.5 Z"/></g>
<g><path style="opacity:0.756" fill="#000000" d="M 747.5,296.5 C 750.85,296.335 754.183,296.502 757.5,297C 758.333,297.833 759.167,298.667 760,299.5C 761.263,306.728 761.93,314.061 762,321.5C 763.684,323.858 763.184,325.858 760.5,327.5C 759.167,326.5 757.833,325.5 756.5,324.5C 750.988,327.495 745.821,327.162 741,323.5C 738.224,316.889 740.057,312.056 746.5,309C 749.757,307.957 753.09,307.457 756.5,307.5C 756.849,304.01 755.349,301.677 752,300.5C 748.863,301.161 746.03,302.495 743.5,304.5C 742.5,303.167 741.5,301.833 740.5,300.5C 742.765,298.873 745.099,297.539 747.5,296.5 Z M 751.5,311.5 C 753.167,311.5 754.833,311.5 756.5,311.5C 756.322,314.216 755.822,316.883 755,319.5C 750.852,323.868 747.685,323.368 745.5,318C 746.326,314.676 748.326,312.51 751.5,311.5 Z"/></g>
<g><path style="opacity:0.8" fill="#000000" d="M 771.5,296.5 C 772.833,296.5 774.167,296.5 775.5,296.5C 775.351,297.552 775.517,298.552 776,299.5C 780.488,296.047 785.155,295.713 790,298.5C 791.445,307.726 791.945,317.06 791.5,326.5C 789.833,326.5 788.167,326.5 786.5,326.5C 786.666,318.493 786.5,310.493 786,302.5C 781.96,300.847 778.627,301.847 776,305.5C 775.5,312.492 775.334,319.492 775.5,326.5C 773.833,326.5 772.167,326.5 770.5,326.5C 770.807,317.113 770.473,307.78 769.5,298.5C 770.243,297.818 770.909,297.151 771.5,296.5 Z"/></g>
<g><path style="opacity:0.795" fill="#000000" d="M 879.5,296.5 C 880.833,296.5 882.167,296.5 883.5,296.5C 883.351,297.552 883.517,298.552 884,299.5C 886.305,297.07 889.138,296.07 892.5,296.5C 892.167,298.5 891.833,300.5 891.5,302.5C 887.818,301.725 885.318,303.059 884,306.5C 883.5,313.158 883.334,319.825 883.5,326.5C 881.833,326.5 880.167,326.5 878.5,326.5C 878.807,317.113 878.473,307.78 877.5,298.5C 878.243,297.818 878.909,297.151 879.5,296.5 Z"/></g>
</svg>
