<svg width="76" height="76" viewBox="0 0 76 76" fill="none" xmlns="http://www.w3.org/2000/svg">
<path d="M6.52632 57.6411C1.44141 49.7636 -0.305609 40.6099 1.0191 31.9265C2.3439 23.2418 6.74337 15.0227 13.9507 9.01554C21.1671 3.00089 30.0596 0.157771 38.8533 0.43116C47.6567 0.704792 56.3601 4.0939 63.1867 10.5431L61.0505 12.8136C54.7919 6.90113 46.8226 3.79439 38.7678 3.544C30.7035 3.29332 22.5517 5.89786 15.9405 11.4081C9.34756 16.9031 5.32173 24.4307 4.10752 32.3903C2.89302 40.3512 4.49278 48.7403 9.15084 55.9565L6.52632 57.6411Z" fill="white"/>
<path d="M63.5024 5.12471L64.7812 12.5212L65.0464 14.0553L63.5059 14.3218L56.5532 15.524L56.0283 12.4479L61.4399 11.512L60.4263 5.64966L63.5024 5.12471ZM69.2339 15.461C74.5962 23.6143 76.4962 33.1227 75.1954 42.1675C73.8939 51.2184 69.3913 59.8093 61.9496 66.1205C54.4973 72.4406 45.2695 75.4767 36.1141 75.2705C26.9531 75.0642 17.8672 71.6147 10.7054 64.9639L12.8294 62.6812C19.4147 68.7965 27.7625 71.9682 36.1751 72.1577C44.5933 72.3473 53.0797 69.5542 59.9354 63.74C66.7733 57.9409 70.9108 50.046 72.107 41.7281C73.3041 33.4041 71.5599 24.6602 66.6337 17.17L69.2338 15.461H69.2339Z" fill="white"/>
<path d="M10.4524 70.6523L9.05348 62.9551L8.77585 61.4272L10.3108 61.1484L17.5458 59.8335L18.0951 62.8975L12.395 63.9336L13.5163 70.1025L10.4524 70.6523ZM56.7359 16.9989C53.3842 14.0067 49.3119 11.8052 44.8112 10.6865C46.8461 13.152 48.7015 15.7692 50.2781 18.5438L50.5964 19.1036L51.2154 18.9258C53.0906 18.387 54.9324 17.7402 56.7359 16.9989ZM41.2427 10.041C40.5459 9.96127 39.8463 9.90736 39.1455 9.87939V20.79L39.9962 20.7561C42.4055 20.6598 44.8029 20.3729 47.1682 19.9061L48.3113 19.6805L47.7111 18.6819C45.8558 15.596 43.648 12.72 41.2428 10.041L41.2427 10.041ZM36.8546 9.87939C36.2568 9.90327 35.6599 9.94605 35.0649 10.0077C32.6479 12.6964 30.4281 15.5838 28.565 18.6835L27.9633 19.6847L29.1097 19.9081C31.3827 20.3508 33.6848 20.6333 35.9982 20.7418L36.8546 20.7818L36.8546 9.87939ZM31.5366 10.6023C26.9106 11.6893 22.7247 13.9175 19.2922 16.9736C21.1774 17.732 23.1008 18.3942 25.0579 18.944L25.6744 19.1172L25.9905 18.5604C27.587 15.748 29.4703 13.0972 31.5366 10.6023ZM17.5082 18.709C13.0331 23.4606 10.1926 29.769 9.88464 36.7358H20.7979L20.8253 35.946C20.9932 31.101 22.1904 26.4579 24.2004 22.0557L24.5912 21.1998L23.6893 20.9317C21.5889 20.3073 19.5268 19.5602 17.5082 18.709ZM9.87497 39.0267C10.1077 45.5137 12.5358 51.4413 16.4386 56.0886L16.1036 55.3623C18.4295 54.3161 20.8159 53.405 23.2549 52.6584L24.1109 52.3963L23.7731 51.5674C22.2364 47.7961 21.2166 43.8489 20.9058 39.7825L20.8481 39.0267H9.87497ZM17.4719 57.2524C17.6776 57.4719 17.8867 57.688 18.0993 57.9007C21.8582 61.6597 26.6759 64.36 32.0667 65.5168C29.5312 62.259 27.2413 58.7901 25.3888 55.1133L25.0818 54.504L24.4272 54.6966C22.0554 55.3945 19.7343 56.2562 17.4719 57.2524ZM35.4008 66.0249C35.8845 66.0692 36.3693 66.1011 36.8546 66.1206V52.6772L35.9983 52.7173C33.4389 52.8373 30.8945 53.1705 28.3875 53.6974L27.3271 53.9202L27.8317 54.879C29.9241 58.8546 32.5383 62.5687 35.4008 66.0249ZM39.1455 66.1206C39.7321 66.0971 40.3177 66.0555 40.9017 65.9958C43.7549 62.5482 46.3589 58.8448 48.4444 54.8826L48.9473 53.9269L47.8911 53.7015C45.292 53.1469 42.6519 52.809 39.9963 52.703L39.1455 52.6691V66.1206ZM44.2696 65.4425C49.5244 64.2471 54.2202 61.5814 57.9009 57.9007C58.1178 57.6837 58.3311 57.4631 58.5407 57.2391C56.3661 56.256 54.1316 55.4078 51.8459 54.7189L51.1885 54.5208L50.8794 55.1338C49.043 58.7751 46.7775 62.2123 44.2696 65.4425ZM59.5736 56.0742C63.4695 51.4292 65.8926 45.507 66.1252 39.0267H55.4303L55.3726 39.7825C55.0611 43.8601 54.0364 47.8175 52.4929 51.5981L52.1567 52.4217L53.0055 52.6878C55.364 53.4277 57.6693 54.3287 59.9128 55.3649L59.5737 56.0742L59.5736 56.0742ZM66.1154 36.7358C65.8078 29.7759 62.9725 23.4729 58.505 18.7228C56.5688 19.5581 54.589 20.2908 52.571 20.9051L51.676 21.1774L52.0652 22.028C54.0829 26.4382 55.2848 31.0906 55.4531 35.946L55.4805 36.7358H66.1154L66.1154 36.7358ZM26.075 51.1716C24.5622 47.578 23.5352 43.8058 23.201 39.9148L23.1248 39.0267H36.8547V50.3789L36.0719 50.4127C33.0195 50.5445 29.9894 50.9676 27.0121 51.6514L26.3419 51.8055L26.075 51.1716ZM27.4949 21.9159C30.3167 22.5364 33.1849 22.9216 36.0718 23.0464L36.8547 23.0802V36.7358H23.0733L23.1072 35.8851C23.2961 31.1511 24.5433 26.6273 26.5811 22.3623L26.861 21.7767L27.4949 21.9159ZM49.2579 51.6617C46.1956 50.9458 43.0762 50.5179 39.9332 50.4009L39.1456 50.3716V39.0267H53.1539L53.0776 39.9148C52.743 43.8098 51.7131 47.5859 50.198 51.1827L49.9301 51.8188L49.2579 51.6617ZM49.6915 22.3527C51.7322 26.6203 52.982 31.1474 53.1712 35.8851L53.2052 36.7358H39.1456V23.0874L39.9332 23.0582C42.9105 22.9474 45.8677 22.5571 48.775 21.9072L49.4105 21.7651L49.6915 22.3527L49.6915 22.3527Z" fill="white"/>
</svg>
