<svg xmlns="http://www.w3.org/2000/svg" fill="none" viewBox="16.8 5.4 67.2 90.2" style="max-height: 500px" width="67.2" height="90.2">
<g clip-path="url(#clip0_2_138)">
<path stroke-linejoin="round" stroke-linecap="round" stroke-width="2" stroke="white" d="M50 29.1667V45.8333M58.3333 37.5H41.6667M79.1667 37.5C79.1667 53.6042 50 91.6667 50 91.6667C50 91.6667 20.8333 53.6042 20.8333 37.5C20.8333 33.6698 21.5878 29.8771 23.0535 26.3384C24.5193 22.7997 26.6677 19.5844 29.3761 16.876C32.0844 14.1677 35.2997 12.0193 38.8384 10.5535C42.3771 9.08775 46.1698 8.33333 50 8.33333C53.8302 8.33333 57.6229 9.08775 61.1616 10.5535C64.7003 12.0193 67.9156 14.1677 70.6239 16.876C73.3323 19.5844 75.4807 22.7997 76.9465 26.3384C78.4123 29.8771 79.1667 33.6698 79.1667 37.5Z"/>
<path stroke-linejoin="round" stroke-linecap="round" stroke-width="2" stroke="white" d="M50 54.1667C59.2047 54.1667 66.6667 46.7047 66.6667 37.5C66.6667 28.2952 59.2047 20.8333 50 20.8333C40.7952 20.8333 33.3333 28.2952 33.3333 37.5C33.3333 46.7047 40.7952 54.1667 50 54.1667Z"/>
<path stroke-linejoin="round" stroke-linecap="round" stroke-width="2" stroke="white" d="M-325 -466.667H1133.33V991.667H-325V-466.667Z"/>
</g>
<defs>
<clipPath id="clip0_2_138">
<rect fill="white" height="100" width="100"/>
</clipPath>
</defs>
</svg>